<svg width="136" height="95" viewBox="0 0 136 95" fill="none" xmlns="http://www.w3.org/2000/svg">
<path d="M9.27273 19.3553C8.46097 19.48 7.7741 19.5735 7.21212 19.6358C6.65014 19.6982 6.18182 19.7293 5.80716 19.7293C3.68411 19.6047 2.18549 19.0125 1.31129 17.9528C0.437098 16.8307 0 14.9918 0 12.436C0 7.38681 2.43526 4.20768 7.30579 2.89862C11.6143 1.90125 16.2351 1.18438 21.168 0.748031C26.101 0.249344 31.596 0 37.6529 0C45.7704 0 53.8255 0.779199 61.8182 2.3376C69.8733 3.896 77.5225 6.04659 84.7658 8.78937C92.0716 11.4698 98.8466 14.6801 105.091 18.4203C111.335 22.0981 116.736 26.1188 121.295 30.4823C125.916 34.7835 129.506 39.334 132.066 44.1339C134.689 48.8714 136 53.6401 136 58.44C136 63.3022 134.345 67.9462 131.036 72.372C127.789 76.7356 123.387 80.6004 117.829 83.9665C112.272 87.3327 105.84 90.0131 98.5344 92.0079C91.2287 94.0026 83.5794 95 75.5868 95C69.2176 95 62.5675 94.4078 55.6364 93.2234C48.7052 92.039 41.056 90.1378 32.6887 87.5197C28.8173 86.46 26.8815 84.0912 26.8815 80.4134C26.8815 79.603 27.0689 78.855 27.4435 78.1693C27.8182 77.4836 28.1928 76.8291 28.5675 76.2057C29.0046 75.5823 29.4105 74.9902 29.7851 74.4291C30.1598 73.8058 30.3471 73.1824 30.3471 72.5591C30.3471 69.0059 30.1598 65.2034 29.7851 61.1516C29.4729 57.0997 29.0046 53.0479 28.3802 48.9961C27.8182 44.9442 27.1313 41.0794 26.3196 37.4016C25.5702 33.6614 24.7897 30.3576 23.978 27.4902C23.1662 24.6227 22.3232 22.3474 21.449 20.6644C20.6373 18.919 19.888 18.0463 19.2011 18.0463C18.1396 18.0463 16.8283 18.1709 15.2672 18.4203C13.7686 18.6696 11.7704 18.9813 9.27273 19.3553ZM45.3333 17.8593C43.5225 17.8593 42.6171 18.4826 42.6171 19.7293C42.6171 20.041 42.7107 20.5709 42.8981 21.3189C43.0854 22.0669 43.3664 23.2513 43.741 24.872C44.303 27.4902 44.8338 30.2953 45.3333 33.2874C45.8329 36.2795 46.3324 39.6457 46.832 43.3858C47.3315 47.0636 47.7998 51.209 48.2369 55.8218C48.7365 60.3724 49.236 65.5151 49.7355 71.25C49.798 72.185 50.641 73.0889 52.2645 73.9616C53.888 74.772 56.0422 75.52 58.7273 76.2057C61.4123 76.8291 64.472 77.3589 67.9063 77.7953C71.4031 78.1693 74.9936 78.3563 78.6777 78.3563C83.5482 78.3563 88.2002 77.7953 92.6336 76.6732C97.1295 75.4888 101.063 73.9304 104.435 71.998C107.87 70.0656 110.586 67.8215 112.584 65.2657C114.645 62.71 115.675 60.0607 115.675 57.3179C115.675 52.7674 113.864 48.3415 110.242 44.0404C106.683 39.7392 101.75 35.8432 95.4435 32.3524C89.1368 28.7992 81.7062 25.7759 73.1515 23.2825C64.5969 20.7267 55.3242 18.919 45.3333 17.8593Z" fill="url(#paint0_linear_34_6)"/>
<defs>
<linearGradient id="paint0_linear_34_6" x1="10.584" y1="58.8763" x2="138.466" y2="58.8763" gradientUnits="userSpaceOnUse">
<stop stop-color="#8E4EC6"/>
<stop offset="1" stop-color="#7CE2FE"/>
</linearGradient>
</defs>
</svg>
