<?xml version="1.0" standalone="no"?>
<!DOCTYPE svg PUBLIC "-//W3C//DTD SVG 20010904//EN"
 "http://www.w3.org/TR/2001/REC-SVG-20010904/DTD/svg10.dtd">
<svg version="1.0" xmlns="http://www.w3.org/2000/svg"
 width="700.000000pt" height="700.000000pt" viewBox="0 0 700.000000 700.000000"
 preserveAspectRatio="xMidYMid meet">
<metadata>
Created by potrace 1.14, written by Peter Selinger 2001-2017
</metadata>
<g transform="translate(0.000000,700.000000) scale(0.100000,-0.100000)"
fill="#000000" stroke="none">
<path d="M575 6985 c-146 -32 -253 -92 -365 -204 -91 -92 -137 -167 -182 -299
l-23 -67 -2 -2860 c-1 -1854 2 -2881 8 -2919 39 -234 216 -449 446 -541 58
-24 78 -29 163 -43 57 -10 5705 -7 5745 3 17 4 35 8 40 9 275 65 491 295 538
572 10 62 13 639 11 2918 l-1 2841 -22 75 c-35 117 -96 223 -176 304 -39 39
-81 80 -95 90 -38 30 -170 93 -236 113 -56 17 -216 18 -2924 20 -2346 1 -2876
-1 -2925 -12z"/>
</g>
</svg>
